<svg xmlns="http://www.w3.org/2000/svg" width="89.9" height="58" viewBox="0 0 89.9 58" fill="currentColor">
  <path id="Pfad_16" data-name="Pfad 16" d="M93.6,49.1,76.4,43.3,67.9,27.7a13.05,13.05,0,0,0-11.4-6.8h-31a12.933,12.933,0,0,0-11.4,6.8L5.2,44v.1a.367.367,0,0,0-.1.3v.5h0v24a2.006,2.006,0,0,0,2,2h8.2a10,10,0,0,0,19.6,0H65.3a10,10,0,0,0,19.6,0H93a2.006,2.006,0,0,0,2-2V51A1.921,1.921,0,0,0,93.6,49.1ZM38,25H56.5a9.01,9.01,0,0,1,7.9,4.7L71.6,43H38ZM17.6,29.7A9.01,9.01,0,0,1,25.5,25H34V43H10.4ZM15.2,67H9V63h8A9.694,9.694,0,0,0,15.2,67ZM25,75a6,6,0,1,1,6-6A6.018,6.018,0,0,1,25,75Zm50,0a6,6,0,1,1,6-6A6.018,6.018,0,0,1,75,75Zm16-8H84.8a10,10,0,0,0-19.6,0H34.8A9.978,9.978,0,0,0,25,59H9V47H74.7L91,52.4Z" transform="translate(-5.1 -20.9)"/>
</svg>
