<svg xmlns="http://www.w3.org/2000/svg" width="31" height="31" viewBox="0 0 80 81">
  <path  d="M64.5,74A6.5,6.5,0,0,1,58,67.5V6.5A6.5,6.5,0,0,1,64.5,0h5A6.5,6.5,0,0,1,76,6.5v61A6.5,6.5,0,0,1,69.5,74Zm-30,0A6.5,6.5,0,0,1,28,67.5v-46A6.5,6.5,0,0,1,34.5,15h5A6.5,6.5,0,0,1,46,21.5v46A6.5,6.5,0,0,1,39.5,74Zm-28,0A6.5,6.5,0,0,1,0,67.5v-30A6.5,6.5,0,0,1,6.5,31h5A6.5,6.5,0,0,1,18,37.5v30A6.5,6.5,0,0,1,11.5,74Z" transform="translate(2 2)" fill="currentColor" stroke="#fff" stroke-linecap="round" stroke-linejoin="round" stroke-width="4"/>
</svg>

