<svg id="Layer_2" data-name="Layer 2" xmlns="http://www.w3.org/2000/svg" width="42.432" height="42.319" viewBox="0 0 42.432 42.319">
  <path id="Pfad_11" data-name="Pfad 11" d="M39.417,1H36a3.936,3.936,0,0,0-3.936,3.936V33.741A3.936,3.936,0,0,0,36,37.677h3.414a3.936,3.936,0,0,0,3.936-3.936V4.936A3.936,3.936,0,0,0,39.417,1Zm1.114,32.741a1.114,1.114,0,0,1-1.114,1.114H36a1.114,1.114,0,0,1-1.114-1.114V4.936A1.114,1.114,0,0,1,36,3.821h3.414a1.114,1.114,0,0,1,1.114,1.114ZM4.856,37.677H8.269a3.95,3.95,0,0,0,3.936-3.936V16.221a3.95,3.95,0,0,0-3.936-3.936H4.856A3.936,3.936,0,0,0,.92,16.221v17.52a3.936,3.936,0,0,0,3.936,3.936ZM3.741,16.221a1.114,1.114,0,0,1,1.114-1.114H8.269a1.129,1.129,0,0,1,1.114,1.114v17.52a1.129,1.129,0,0,1-1.114,1.114H4.856a1.114,1.114,0,0,1-1.114-1.114ZM23.787,37.677a3.95,3.95,0,0,0,3.936-3.936V10.578a3.95,3.95,0,0,0-3.936-3.936H20.373a3.936,3.936,0,0,0-3.936,3.936V33.741a3.936,3.936,0,0,0,3.936,3.936Zm-4.528-3.936V10.578a1.114,1.114,0,0,1,1.114-1.114h3.414A1.129,1.129,0,0,1,24.9,10.578V33.741a1.129,1.129,0,0,1-1.114,1.114H20.373a1.114,1.114,0,0,1-1.114-1.114ZM8.086,41.909A1.411,1.411,0,0,0,9.5,43.319H34.888a1.411,1.411,0,1,0,0-2.821H9.5A1.411,1.411,0,0,0,8.086,41.909Z" transform="translate(-0.92 -1)" fill="#fff"/>
</svg>
