<svg xmlns="http://www.w3.org/2000/svg" width="73.048" height="99.962" viewBox="0 0 73.048 99.962">
  <g id="_Group_" data-name="&lt;Group&gt;" transform="translate(-80.597 -14.48)">
    <path id="_Path_" data-name="&lt;Path&gt;" d="M140.47,55.3a1.616,1.616,0,0,1-.855-1.889,15.494,15.494,0,0,0-2.87-13.852,1.616,1.616,0,0,1-.233-1.64,9.815,9.815,0,0,0-12.988-12.775,1.616,1.616,0,0,1-2.1-.775A14.815,14.815,0,0,0,93.263,30.8a14.653,14.653,0,0,0,2.974,8.874,1.616,1.616,0,0,1-.56,2.428l-.041.02-.031.016a15.914,15.914,0,0,0-7.877,19.517,1.618,1.618,0,0,1-.355,1.653,18.583,18.583,0,1,0,26.617,25.939V72.58l-7.251-6.134a1.613,1.613,0,0,1-.167-2.277,1.594,1.594,0,0,1,2.259-.194l5.159,4.378V57.838a1.616,1.616,0,1,1,3.231,0V78.791l8.495-5.282a1.648,1.648,0,0,1,2.253.516,1.621,1.621,0,0,1-.534,2.226L117.22,82.6v6.252A20.66,20.66,0,1,0,140.47,55.3Z" transform="translate(0 0)" fill="none" stroke="currentColor" stroke-width="3"/>
    <path id="_Path_2" data-name="&lt;Path&gt;" d="M240,406.6a1.616,1.616,0,1,0,3.231,0V386H240Z" transform="translate(-126.011 -295.272)" fill="none" stroke="currentColor" stroke-width="3"/>
  </g>
</svg>
